<svg width="122" height="122" viewBox="0 0 122 122" fill="none" xmlns="http://www.w3.org/2000/svg">
<circle cx="61" cy="61" r="10" fill="#F5F5F5"/>
<path d="M66.4114 14.6597L63.4844 0.0562193L66.3319 0.487771L68.4658 12.1795L74.0043 1.65056L76.832 2.07912L69.6939 15.1572L66.4114 14.6597Z" fill="white"/>
<path d="M76.1746 16.8213L81.5154 3.88007L84.0108 4.91102L78.67 17.8523L76.1746 16.8213Z" fill="white"/>
<path d="M83.8923 20.0897L91.996 8.67351L99.4954 14.0026L98.2336 15.7802L92.9351 12.0151L90.8165 14.9996L95.6259 18.4172L94.4104 20.1296L89.601 16.7121L87.3551 19.876L92.6536 23.6411L91.3917 25.4187L83.8923 20.0897Z" fill="white"/>
<path d="M95.9737 29.8436L105.163 18.6562L106.861 21.0069L99.4137 29.3797L109.977 25.3192L111.722 27.7347L104.485 36.3993L114.79 31.9821L116.489 34.3328L102.943 39.4895L101.057 36.8794L107.741 28.7133L97.8477 32.4374L95.9737 29.8436Z" fill="white"/>
<path d="M107.006 50.9955L120.973 50.0332L121.194 53.2456L112.791 58.1548L121.784 61.8253L122.006 65.0377L108.039 66L107.853 63.3064L117.251 62.6589L109.572 59.4391L109.425 57.3041L116.589 53.0416L107.191 53.6891L107.006 50.9955Z" fill="white"/>
<path d="M105.594 73.68C105.963 72.3572 106.584 71.2709 107.458 70.4211C108.328 69.5843 109.364 69.022 110.565 68.7345C111.776 68.4633 113.068 68.5195 114.442 68.9031C115.816 69.2867 116.945 69.9063 117.827 70.7617C118.719 71.6336 119.321 72.6529 119.632 73.8196C119.94 74.9992 119.91 76.2504 119.541 77.5732C119.168 78.9089 118.545 80.0016 117.671 80.8514C116.798 81.7011 115.756 82.2615 114.545 82.5327C113.347 82.8074 112.061 82.753 110.687 82.3694C109.313 81.9858 108.178 81.3645 107.283 80.5054C106.4 79.6499 105.805 78.6324 105.497 77.4529C105.189 76.2733 105.221 75.0157 105.594 73.68ZM107.925 74.3307C107.692 75.1655 107.678 75.9367 107.882 76.6443C108.095 77.3683 108.502 77.9941 109.102 78.5216C109.703 79.0491 110.478 79.4455 111.428 79.7108C112.392 79.9797 113.26 80.0421 114.034 79.8982C114.82 79.7579 115.486 79.4314 116.03 78.9189C116.571 78.4193 116.958 77.752 117.19 76.9172C117.42 76.0952 117.434 75.324 117.234 74.6036C117.029 73.896 116.627 73.2784 116.027 72.7509C115.439 72.227 114.664 71.8306 113.701 71.5617C112.75 71.2964 111.882 71.234 111.095 71.3743C110.309 71.5146 109.639 71.8329 109.085 72.3289C108.541 72.8415 108.154 73.5087 107.925 74.3307Z" fill="white"/>
<path d="M102.837 82.181L114.553 89.8451L111.697 94.2148C111.077 95.1636 110.405 95.839 109.68 96.2412C108.956 96.6434 108.221 96.8164 107.478 96.7601C106.745 96.7111 106.05 96.4713 105.391 96.0407C104.767 95.6319 104.276 95.1036 103.919 94.4557C103.573 93.8152 103.436 93.0729 103.51 92.2289C103.588 91.4033 103.944 90.505 104.578 89.534L105.946 87.4412L101.36 84.4413L102.837 82.181ZM98.8655 88.2585L105.596 89.2198L103.999 91.6642L97.1807 90.8368L98.8655 88.2585ZM107.586 88.5141L106.295 90.4897C105.85 91.1706 105.689 91.7823 105.813 92.325C105.936 92.8677 106.271 93.3178 106.818 93.6755C107.364 94.0331 107.9 94.1523 108.424 94.033C108.951 93.9321 109.441 93.5357 109.894 92.8437L111.185 90.8681L107.586 88.5141Z" fill="white"/>
<path d="M95.327 92.9192L104.522 103.476L97.5883 109.522L96.1564 107.878L101.056 103.607L98.6516 100.847L94.2047 104.724L92.8254 103.141L97.2723 99.2633L94.7238 96.3375L89.8247 100.609L88.3929 98.9656L95.327 92.9192Z" fill="white"/>
<path d="M76.3058 109.191C76.792 109.048 77.2735 109.032 77.7504 109.142C78.2183 109.269 78.6255 109.497 78.972 109.826C79.3223 110.168 79.5687 110.582 79.7112 111.068C79.8575 111.567 79.8736 112.049 79.7595 112.513C79.6492 112.99 79.4295 113.402 79.1004 113.749C78.7622 114.112 78.3501 114.365 77.8639 114.507C77.3649 114.654 76.8815 114.664 76.4136 114.537C75.9367 114.427 75.5231 114.201 75.1728 113.859C74.8263 113.53 74.5799 113.116 74.4337 112.617C74.2912 112.13 74.2751 111.649 74.3854 111.172C74.4994 110.708 74.7255 110.294 75.0637 109.931C75.3928 109.584 75.8068 109.337 76.3058 109.191Z" fill="white"/>
<path d="M55.0844 107.307L57.8656 121.939L55.0226 121.479L53.0054 109.767L47.3622 120.24L44.5389 119.783L51.807 106.777L55.0844 107.307Z" fill="white"/>
<path d="M45.3428 105.048L39.8722 117.934L37.3873 116.879L42.8578 103.992L45.3428 105.048Z" fill="white"/>
<path d="M37.6544 101.7L29.4364 113.034L21.9909 107.63L23.2705 105.865L28.5309 109.683L30.6794 106.72L25.9045 103.254L27.1372 101.554L31.9121 105.02L34.1896 101.879L28.9292 98.0607L30.2088 96.2958L37.6544 101.7Z" fill="white"/>
<path d="M25.6715 91.8251L16.3707 102.92L14.6961 100.552L22.2271 92.2545L11.624 96.2087L9.90318 93.7758L17.2263 85.1843L6.87729 89.4977L5.20265 87.1301L18.7998 82.1097L20.6592 84.7386L13.8938 92.8372L23.8237 89.2126L25.6715 91.8251Z" fill="white"/>
<path d="M14.8529 70.5597L0.877029 71.3817L0.688152 68.1673L9.13971 63.3427L0.183699 59.5821L-0.00517821 56.3676L13.9707 55.5456L14.129 58.2409L4.72529 58.794L12.3718 62.0907L12.4974 64.227L5.29075 68.4174L14.6945 67.8643L14.8529 70.5597Z" fill="white"/>
<path d="M16.4932 47.8932C16.1109 49.2122 15.4786 50.2922 14.5963 51.133C13.7178 51.9609 12.6764 52.5126 11.4721 52.788C10.2588 53.0468 8.96705 52.9774 7.59689 52.5799C6.22672 52.1824 5.10469 51.5514 4.23077 50.687C3.34776 49.806 2.75649 48.7807 2.45696 47.6109C2.16114 46.4283 2.20438 45.1775 2.58668 43.8584C2.97269 42.5266 3.60682 41.4402 4.48908 40.5994C5.37135 39.7586 6.41915 39.2088 7.63249 38.95C8.83303 38.6875 10.1184 38.755 11.4885 39.1525C12.8587 39.55 13.9871 40.1828 14.8739 41.051C15.7478 41.9154 16.3326 42.9389 16.6285 44.1215C16.9243 45.3041 16.8792 46.5613 16.4932 47.8932ZM14.169 47.2189C14.4103 46.3865 14.4325 45.6154 14.2356 44.9058C14.0296 44.1796 13.6291 43.5498 13.0341 43.0162C12.4391 42.4826 11.6678 42.0783 10.7202 41.8034C9.75984 41.5247 8.89205 41.4535 8.11687 41.5895C7.32888 41.7218 6.66013 42.0415 6.11062 42.5485C5.56482 43.0426 5.17129 43.7059 4.93004 44.5383C4.69249 45.3579 4.67032 46.1289 4.86351 46.8514C5.06042 47.561 5.45636 48.1826 6.05134 48.7162C6.63352 49.2461 7.4048 49.6503 8.3652 49.929C9.31279 50.2039 10.1806 50.2752 10.9686 50.1429C11.7565 50.0105 12.4298 49.6991 12.9884 49.2087C13.538 48.7017 13.9315 48.0385 14.169 47.2189Z" fill="white"/>
<path d="M19.3351 39.4241L7.69642 31.6433L10.5954 27.3023C11.2248 26.3599 11.9039 25.6911 12.6326 25.2962C13.3613 24.9012 14.0972 24.7356 14.8403 24.7994C15.5723 24.8557 16.2653 25.1024 16.9193 25.5396C17.54 25.9546 18.0257 26.4878 18.3763 27.1392C18.7158 27.7832 18.8445 28.5268 18.7624 29.37C18.6765 30.1948 18.3115 31.0895 17.6673 32.0541L16.2789 34.1332L20.8346 37.1788L19.3351 39.4241ZM23.3671 33.3867L16.6466 32.3581L18.2683 29.9298L25.0776 30.8253L23.3671 33.3867ZM14.6495 33.0438L15.9601 31.0813C16.4118 30.4049 16.5788 29.7948 16.461 29.2509C16.3432 28.707 16.0127 28.2536 15.4696 27.8904C14.9265 27.5273 14.3923 27.4028 13.8672 27.5169C13.3384 27.6125 12.8445 28.004 12.3854 28.6914L11.0747 30.654L14.6495 33.0438Z" fill="white"/>
<path d="M26.9526 28.7599L17.8632 18.1118L24.8574 12.1351L26.2728 13.7931L21.3312 18.0158L23.7074 20.7995L28.1929 16.9667L29.5563 18.5639L25.0709 22.3967L27.5899 25.3478L32.5315 21.1251L33.9468 22.7832L26.9526 28.7599Z" fill="white"/>
<path d="M46.1377 12.6796C45.6501 12.8172 45.1684 12.8286 44.6926 12.7135C44.2261 12.582 43.8212 12.35 43.478 12.0174C43.1312 11.672 42.889 11.2554 42.7515 10.7678C42.6103 10.2673 42.5991 9.78559 42.7179 9.32256C42.833 8.8467 43.0569 8.43711 43.3895 8.0938C43.7313 7.73404 44.1461 7.48531 44.6337 7.34763C45.1341 7.20632 45.6176 7.20141 46.0841 7.33291C46.5599 7.44795 46.9712 7.67818 47.318 8.0236C47.6612 8.35619 47.9033 8.77272 48.0445 9.27319C48.1821 9.76083 48.1933 10.2426 48.0781 10.7184C47.9594 11.1815 47.7291 11.5929 47.3873 11.9526C47.0546 12.2959 46.6381 12.5383 46.1377 12.6796Z" fill="white"/>
</svg>
