<svg
  xmlns="http://www.w3.org/2000/svg"
  width="148"
  height="430"
  viewBox="0 0 148 437"
  fill="none"
>
  <path
    d="M59.6943 400.853L58.8252 399.051L59.6943 400.853ZM0.484143 427.852C0.120127 428.895 0.670429 430.036 1.71329 430.4L18.7077 436.332C19.7506 436.696 20.8911 436.145 21.2551 435.103C21.6191 434.06 21.0688 432.919 20.026 432.555L4.9198 427.282L10.1928 412.176C10.5568 411.133 10.0065 409.993 8.96361 409.629C7.92075 409.265 6.78024 409.815 6.41623 410.858L0.484143 427.852ZM72.4191 133.055L74.1682 134.025L72.4191 133.055ZM71.4218 218.506L73.193 217.577L71.4218 218.506ZM101.189 275.264L99.4175 276.193L101.189 275.264ZM58.8252 399.051L1.50328 426.71L3.24155 430.313L60.5635 402.654L58.8252 399.051ZM143.623 0.541331L70.6701 132.085L74.1682 134.025L147.121 2.48133L143.623 0.541331ZM69.6506 219.435L99.4175 276.193L102.96 274.335L73.193 217.577L69.6506 219.435ZM70.6701 132.085C55.6471 159.174 55.2639 192.003 69.6506 219.435L73.193 217.577C59.4318 191.338 59.7983 159.936 74.1682 134.025L70.6701 132.085ZM60.5635 402.654C108.43 379.558 127.645 321.402 102.96 274.335L99.4175 276.193C123.052 321.257 104.655 376.938 58.8252 399.051L60.5635 402.654Z"
    fill="url(#paint0_linear_1060_69019)"
  />
  <defs>
    <linearGradient
      id="paint0_linear_1060_69019"
      x1="145.873"
      y1="7.01173"
      x2="9.37306"
      y2="432.512"
      gradientUnits="userSpaceOnUse"
    >
      <stop stop-color="#FFC787" />
      <stop offset="1" stop-color="#A981FE" />
    </linearGradient>
  </defs>
</svg>