<svg
  xmlns="http://www.w3.org/2000/svg"
  width="169"
  height="423"
  viewBox="0 0 169 423"
  fill="none"
>
  <path
    d="M1.04267 416.815C0.326253 416.498 0.0267777 415.593 0.373766 414.794L6.02793 401.777C6.37489 400.978 7.23693 400.588 7.95333 400.906C8.66973 401.224 8.9692 402.129 8.62225 402.927L3.59632 414.498L13.9736 419.1C14.69 419.417 14.9895 420.322 14.6425 421.121C14.2955 421.92 13.4335 422.31 12.7171 421.992L1.04267 416.815ZM133.902 3.01078C133.627 2.22759 134.01 1.30542 134.757 0.951049C135.505 0.59668 136.333 0.944308 136.608 1.7275L133.902 3.01078ZM1.19793 413.94C98.0343 370.127 144.016 304.292 159.465 231.129C174.945 157.822 159.824 76.9059 133.902 3.01078L136.608 1.7275C162.603 75.8324 177.94 157.417 162.273 231.609C146.576 305.946 99.8076 372.611 2.14389 416.799L1.19793 413.94Z"
    fill="url(#paint0_linear_1005_16615)"
  />
  <defs>
    <linearGradient
      id="paint0_linear_1005_16615"
      x1="-23.8176"
      y1="254.808"
      x2="198.315"
      y2="172.449"
      gradientUnits="userSpaceOnUse"
    >
      <stop stop-color="#BFF0FF" />
      <stop offset="1" stop-color="#82B4FF" />
    </linearGradient>
  </defs>
</svg>