<svg width="728" height="141" viewBox="0 0 728 141" fill="none" xmlns="http://www.w3.org/2000/svg">
<path d="M2.30859 70.7314C10.6793 44.4646 33.8934 33.4444 61.2302 32.4868C86.7651 31.5922 116.635 39.3044 140.518 47.567C259.358 88.6808 133.856 176.267 141.14 89.3873C142.861 68.852 154.391 53.9368 167.569 39.0164C187.443 16.5145 208.079 13.1324 237.373 11.0325C288.687 7.35397 326.389 23.0768 353.506 73.2189C380.738 123.571 318.025 121.288 318.527 87.2108C318.922 60.3195 351.411 15.8018 379.158 7.45675C403.982 -0.00918674 447.869 -0.953404 472.516 10.7215C495.63 21.6706 512.266 48.9131 524.674 70.4205C532.372 83.7626 535.686 105.096 525.996 118.537C504.238 148.717 460.582 145.788 462.644 105.245C463.417 90.0273 474.646 73.3703 484.409 62.1808C495.089 49.94 505.076 39.678 521.41 29.3775C590.081 -13.928 700.342 35.6385 725.692 67.933" stroke="url(#paint0_linear_1005_16745)" stroke-width="3" stroke-linecap="round"/>
<defs>
<linearGradient id="paint0_linear_1005_16745" x1="639.802" y1="70.3233" x2="2.30859" y2="70.3233" gradientUnits="userSpaceOnUse">
<stop stop-color="#A9FE81"/>
<stop offset="1" stop-color="#C0F0FF"/>
</linearGradient>
</defs>
</svg>
