<svg
  xmlns="http://www.w3.org/2000/svg"
  width="651"
  height="435"
  viewBox="0 0 651 435"
  fill="none"
>
  <path
    d="M380.437 249.658L380.536 248.161L380.437 249.658ZM7.69012 434.1C8.09378 434.823 9.00746 435.083 9.73089 434.679L21.5199 428.101C22.2433 427.697 22.5025 426.784 22.0988 426.06C21.6952 425.337 20.7815 425.078 20.0581 425.481L9.57899 431.328L3.73186 420.849C3.32819 420.126 2.41451 419.867 1.69108 420.27C0.967649 420.674 0.708426 421.588 1.11209 422.311L7.69012 434.1ZM647.507 0.220813C644.095 34.5615 628.455 99.98 588.092 155.084C547.786 210.109 482.828 254.873 380.536 248.161L380.339 251.154C483.796 257.943 549.689 212.589 590.512 156.857C631.277 101.204 647.043 35.2278 650.493 0.517469L647.507 0.220813ZM380.536 248.161C298.444 242.774 217.643 245.222 151.143 270.888C84.5362 296.596 32.3502 345.571 7.55695 432.96L10.443 433.779C34.9688 347.333 86.4607 299.069 152.223 273.687C218.091 248.265 298.349 245.774 380.339 251.154L380.536 248.161Z"
    fill="url(#paint0_linear_1005_16685)"
  />
  <defs>
    <linearGradient
      id="paint0_linear_1005_16685"
      x1="573.011"
      y1="216.869"
      x2="9"
      y2="216.869"
      gradientUnits="userSpaceOnUse"
    >
      <stop stop-color="#FF4646" />
      <stop offset="1" stop-color="#FF9486" />
    </linearGradient>
  </defs>
</svg>