<svg
  xmlns="http://www.w3.org/2000/svg"
  width="103"
  height="255"
  viewBox="0 0 103 255"
  fill="none"
>
  <path
    d="M29.3982 0.848905C30.225 0.900958 30.853 1.6134 30.801 2.44019L29.9527 15.9135C29.9007 16.7403 29.1883 17.3684 28.3615 17.3163C27.5347 17.2642 26.9066 16.5518 26.9587 15.725L27.7127 3.74873L15.7364 2.99473C14.9096 2.94268 14.2815 2.23023 14.3336 1.40344C14.3856 0.576654 15.0981 -0.0513945 15.9249 0.000658132L29.3982 0.848905ZM101.775 251.716C102.484 252.144 102.712 253.066 102.284 253.775C101.856 254.484 100.934 254.712 100.225 254.284L101.775 251.716ZM30.2959 3.47115C2.76832 27.7379 -3.2192 75.3057 9.80462 124.385C22.8012 173.361 54.609 223.248 101.775 251.716L100.225 254.284C52.2728 225.342 20.0621 174.736 6.90498 125.154C-6.2249 75.6755 -0.501342 26.621 28.312 1.22073L30.2959 3.47115Z"
    fill="url(#paint0_linear_1032_27417)"
  />
  <defs>
    <linearGradient
      id="paint0_linear_1032_27417"
      x1="97.8284"
      y1="66.0359"
      x2="18.4961"
      y2="206.355"
      gradientUnits="userSpaceOnUse"
    >
      <stop stop-color="#BFF0FF" />
      <stop offset="1" stop-color="#82B4FF" />
    </linearGradient>
  </defs>
</svg>